<svg xmlns="http://www.w3.org/2000/svg" viewBox="0 0 512 512" role="img" aria-labelledby="title desc">
  <title id="title">Gadgets Mela icon</title>
  <desc id="desc">Circular Gadgets Mela 2.0 icon based on the supplied pink badge and GM mark.</desc>
  <defs>
    <path id="top-arc" d="M86 256a170 170 0 0 1 340 0"/>
    <path id="bottom-arc" d="M426 256a170 170 0 0 1-340 0"/>
    <clipPath id="inner-clip"><circle cx="256" cy="256" r="116"/></clipPath>
    <linearGradient id="maroon" x1="118" x2="398" y1="190" y2="330" gradientUnits="userSpaceOnUse">
      <stop offset="0" stop-color="#5f1d2b"/>
      <stop offset="1" stop-color="#9a4657"/>
    </linearGradient>
  </defs>
  <rect width="512" height="512" rx="0" fill="#ffffff"/>
  <circle cx="256" cy="256" r="214" fill="#f6adc0" stroke="#283160" stroke-width="6"/>
  <circle cx="256" cy="256" r="205" fill="none" stroke="#ff344d" stroke-width="7"/>
  <circle cx="256" cy="256" r="117" fill="#ffffff" stroke="#2e345f" stroke-width="8"/>
  <g clip-path="url(#inner-clip)" opacity="0.16">
    <rect x="140" y="144" width="232" height="224" fill="#e5e7eb"/>
    <circle cx="224" cy="198" r="34" fill="#64748b"/>
    <circle cx="294" cy="196" r="32" fill="#b91c1c"/>
    <rect x="166" y="270" width="178" height="28" rx="10" fill="#334155"/>
    <rect x="190" y="308" width="136" height="18" rx="9" fill="#94a3b8"/>
  </g>
  <g font-family="Impact, Haettenschweiler, 'Arial Black', sans-serif" font-weight="900" letter-spacing="23">
    <text font-size="58" fill="#080808">
      <textPath href="#top-arc" startOffset="50%" text-anchor="middle">GADGET</textPath>
    </text>
    <text font-size="55" fill="#9a4657">
      <textPath href="#bottom-arc" startOffset="50%" text-anchor="middle">MELA 2.0</textPath>
    </text>
  </g>
  <g transform="translate(112 196) scale(0.56)">
    <path d="M0 110C0 45 50 0 113 0h58v48h-57c-38 0-65 25-65 62 0 12 2 23 7 33h141c22 0 36-13 36-34 0-20-15-34-36-34h-86c15-25 41-41 72-41 56 0 95 36 95 86s-39 86-95 86H18C6 176 0 145 0 110Z" fill="#000000"/>
    <path d="M61 262c33 35 79 55 135 55 86 0 152-56 168-140 5-29 3-58-7-85h-58c13 25 17 52 12 79-12 58-58 96-116 96-26 0-51-7-72-21H61Z" fill="url(#maroon)"/>
    <path d="M420 0h58l92 184L665 0h58l-140 275-53-103-42 104h-58l66-151-43-85-96 236h-58L420 0Z" fill="#000000"/>
    <path d="M622 0h58l143 276h-73l-33-71h-122l-35 71h-58L622 0Z" fill="url(#maroon)"/>
    <path d="M724 282h82l-34 66H690l34-66ZM399 282h82l34 66h-82l-34-66Z" fill="#000000"/>
  </g>
</svg>
